<?xml version="1.0" encoding="UTF-8" standalone="no"?>
<!DOCTYPE svg PUBLIC "-//W3C//DTD SVG 1.1//EN" "http://www.w3.org/Graphics/SVG/1.1/DTD/svg11.dtd">
<svg width="100%" height="100%" viewBox="0 0 2353 1050" version="1.1" xmlns="http://www.w3.org/2000/svg" xmlns:xlink="http://www.w3.org/1999/xlink" xml:space="preserve" xmlns:serif="http://www.serif.com/" style="fill-rule:evenodd;clip-rule:evenodd;stroke-linejoin:round;stroke-miterlimit:2;">
    <g transform="matrix(1,0,0,1,-73.5256,-725.295)">
        <path d="M73.526,1053.34L73.526,1217.41L553.446,1217.41C609.229,1217.41 680.498,1165.83 680.498,1080.5C680.498,1046.18 693.623,1023.79 653.287,978.4L591.901,905.666C556.727,872.852 596.103,872.852 625.648,872.852L828.275,872.852L828.275,1217.41L988.971,1217.41L988.971,872.852L1205.55,872.852L1205.55,725.295L504.226,725.295C418.897,725.295 377.174,807.225 379.521,849.883C381.882,892.54 389.728,946.209 460.634,1010.68C525.314,1069.47 428.612,1053.34 418.897,1053.34L73.526,1053.34ZM1560.88,725.295L1301.65,725.295L1156.32,1217.42L1318.05,1217.42L1344.29,1148.51L1514.92,1148.51L1540.25,1217.42L1698.68,1217.42L1560.88,725.295ZM1380.4,1030.37L1436.18,849.883L1488.7,1030.37L1380.4,1030.37ZM2210.61,1053.34C2148.26,1053.34 2148.26,1030.37 2148.26,1030.37C2201.68,1030.37 2249.05,952.538 2249.05,872.852C2249.05,793.166 2171.23,725.295 2108.86,725.295L1760.09,725.295L1760.09,1217.42L1937.31,1217.42L1937.31,1053.35C1937.31,1053.35 2012.77,1141.95 2052.14,1178.04C2091.53,1214.14 2094.8,1217.42 2148.25,1217.42L2426.43,1217.42L2426.43,1053.35C2426.46,1053.34 2272.95,1053.34 2210.61,1053.34ZM2049.81,938.492L1937.33,938.492L1937.33,849.883L2049.81,849.883C2101.37,849.883 2110.3,938.492 2049.81,938.492ZM73.526,1279.75L254.83,1279.75L300.769,1443.85L343.426,1279.75L533.758,1279.75L582.978,1443.85L632.211,1279.75L789.716,1279.75L645.324,1771.99L500.944,1771.99L437.678,1538.99L366.396,1771.99L218.735,1771.99L73.526,1279.75ZM1161.81,1282.59L902.566,1282.59L757.253,1774.7L918.973,1774.7L945.223,1705.81L1115.87,1705.81L1141.2,1774.7L1299.63,1774.7L1161.81,1282.59ZM981.331,1587.65L1037.11,1407.17L1089.62,1587.65L981.331,1587.65ZM2213.87,1427.44C2184.37,1427.44 2152.19,1430.89 2187.38,1463.69L2248.78,1536.44C2289.1,1581.83 2288.45,1600.75 2288.45,1635.1C2288.45,1720.41 2204.04,1771.99 2148.26,1771.99L1760.52,1774.6C1707.09,1774.6 1703.83,1771.33 1664.44,1735.24C1625.07,1699.14 1549.59,1610.53 1549.59,1610.53L1549.59,1774.6L1372.4,1774.6L1372.4,1282.49L1721.17,1282.49C1783.51,1282.49 1861.36,1350.37 1861.36,1430.05C1861.36,1509.75 1813.99,1587.56 1760.54,1587.56C1760.54,1587.56 1784.04,1611.19 1823.42,1611.19C1862.81,1611.19 2014.42,1611.35 2014.42,1611.35C2024.13,1611.35 2120.82,1627.49 2056.15,1568.69C1985.24,1504.22 1977.4,1450.58 1975.04,1407.92C1972.67,1365.26 2009.56,1279.77 2094.85,1279.77L2426.49,1279.77L2426.49,1427.45L2213.87,1427.45L2213.87,1427.44ZM1662.08,1495.67L1549.58,1495.67L1549.58,1407.06L1662.08,1407.06C1713.66,1407.06 1722.57,1495.67 1662.08,1495.67Z" style="fill:white;"/>
    </g>
</svg>
