<?xml version="1.0" encoding="UTF-8" standalone="no"?>
<!DOCTYPE svg PUBLIC "-//W3C//DTD SVG 1.1//EN" "http://www.w3.org/Graphics/SVG/1.1/DTD/svg11.dtd">
<svg width="100%" height="100%" viewBox="0 0 317 63" version="1.1" xmlns="http://www.w3.org/2000/svg" xmlns:xlink="http://www.w3.org/1999/xlink" xml:space="preserve" xmlns:serif="http://www.serif.com/" style="fill-rule:evenodd;clip-rule:evenodd;stroke-linejoin:round;stroke-miterlimit:2;">
    <g id="path3422" transform="matrix(1,0,0,1,-101.508,-2.3685)">
        <path d="M101.523,61.547C101.593,60.157 101.751,60.092 106.459,59.517L110.951,58.969L111.145,57.873C111.375,56.578 111.363,31.161 111.126,15.948L110.96,5.27L109.727,4.906C109.048,4.705 107.029,4.437 105.24,4.309C101.922,4.071 101.517,3.913 101.508,2.848C101.504,2.398 102.283,2.368 114.072,2.368C132.817,2.368 138.201,2.965 143.303,5.608C147.06,7.554 149.631,10.958 149.943,14.4C150.228,17.545 148.853,22.17 146.702,25.296C143.61,29.789 137.076,33.953 130.421,35.671C126.522,36.678 125.897,36.746 125.902,36.163C125.912,34.785 126.2,34.519 128.789,33.495C132.019,32.216 134.16,30.839 135.859,28.947C138.64,25.852 139.721,22.479 139.548,17.439C139.451,14.587 139.356,14.103 138.568,12.419C136.416,7.819 131.839,5.38 124.526,4.936L121.574,4.757L121.338,5.961C121.071,7.321 121.114,49.617 121.388,55.175C121.555,58.559 121.603,58.792 122.156,58.945C122.481,59.035 124.843,59.301 127.406,59.536C129.968,59.771 132.219,60.013 132.408,60.074C132.596,60.135 132.751,60.498 132.751,60.879L132.751,61.573L120.459,61.573C113.699,61.573 106.669,61.654 104.836,61.752C102.069,61.901 101.507,61.866 101.523,61.547Z" style="fill:white;fill-rule:nonzero;"/>
    </g>
    <g id="path3424" transform="matrix(1,0,0,1,-139.876,-1.05057)">
        <path d="M203.28,61.221C203.282,60.881 203.374,60.473 203.484,60.315C203.594,60.157 205.114,59.874 206.862,59.687C208.611,59.499 210.633,59.199 211.356,59.021C212.672,58.696 212.672,58.696 212.852,57.334C213.24,54.408 212.944,6.384 212.534,5.721C212.433,5.557 210.4,5.174 208.017,4.869C205.634,4.565 203.663,4.295 203.638,4.27C203.613,4.245 203.508,3.888 203.404,3.476L203.216,2.728L215.869,2.728C222.828,2.728 229.478,2.647 230.646,2.548L232.77,2.368L232.575,3.161C232.467,3.597 232.296,4.036 232.194,4.137C232.092,4.239 230.078,4.556 227.718,4.842C225.358,5.128 223.336,5.454 223.224,5.566C222.945,5.845 222.833,43.494 223.087,51.887L223.293,58.696L224.65,59.031C225.395,59.215 227.404,59.487 229.112,59.635C230.821,59.784 232.254,59.94 232.296,59.982C232.338,60.024 232.449,60.365 232.543,60.739L232.713,61.42L218.607,61.479C210.849,61.512 204.225,61.606 203.888,61.689C203.388,61.811 203.276,61.725 203.28,61.221Z" style="fill:white;fill-rule:nonzero;"/>
    </g>
    <g id="path3985" transform="matrix(1,0,0,1,-176.7,-1.40211)">
        <path d="M339.988,62.499C335.291,58.668 326.923,49.679 316.208,36.956C315.039,35.568 313.974,34.432 313.841,34.432C312.922,34.432 301.919,51.224 298.883,57.261L298.037,58.943L300.689,59.389C302.148,59.635 303.729,59.894 304.202,59.966C305.006,60.088 305.389,60.507 305.388,61.264C305.387,61.501 302.563,61.59 294.33,61.614L283.273,61.645L283.445,61.068C283.728,60.12 284.143,59.898 286.269,59.562C289.089,59.116 289.832,58.689 292.193,56.158C295.011,53.136 308.628,36.002 311.51,31.849C311.696,31.582 311.239,30.855 309.852,29.205C308.8,27.953 305.05,23.06 301.519,18.333C297.988,13.606 294.248,8.755 293.208,7.555C291.412,5.483 291.227,5.349 289.552,4.913C288.582,4.661 287.328,4.446 286.765,4.435C285.86,4.419 285.742,4.338 285.742,3.735C285.742,3.359 285.711,3.005 285.674,2.948C285.636,2.891 291.591,2.773 298.908,2.686C311.339,2.539 312.209,2.559 312.206,2.995C312.198,3.888 311.783,4.082 308.928,4.528C307.349,4.775 305.718,5.067 305.306,5.178L304.555,5.378L306.419,8.24C310.126,13.933 317.594,24.308 317.998,24.327C318.573,24.354 328.243,10.681 330.498,6.652C331.318,5.186 331.257,5.139 327.718,4.519C325.252,4.087 325.073,4.011 324.946,3.35C324.871,2.961 324.83,2.625 324.854,2.603C324.878,2.581 329.414,2.519 334.933,2.466L344.967,2.368L344.792,3.188C344.696,3.639 344.599,4.03 344.577,4.057C344.555,4.084 343.32,4.355 341.833,4.659C339.212,5.194 339.083,5.256 337.648,6.656C335.95,8.312 328.709,16.501 323.486,22.671L319.93,26.872L322.061,29.607C324.176,32.321 325.111,33.617 334.995,47.53C339.206,53.458 345.45,62.038 346.66,63.561C346.873,63.829 346.371,63.902 344.319,63.902L341.708,63.902L339.988,62.499Z" style="fill:white;fill-rule:nonzero;"/>
    </g>
    <g id="path4036" transform="matrix(1,0,0,1,-249.407,-0.879699)">
        <path d="M559.596,61.9C555.02,58.504 545.273,48.795 535.557,37.957L531.665,33.614L527.727,33.779C525.56,33.87 523.69,34.033 523.57,34.142C523.307,34.379 523.654,57.612 523.927,58.053C524.19,58.479 525.683,58.771 529.54,59.152C532.716,59.466 532.853,59.505 533.016,60.154C533.109,60.525 533.149,60.862 533.104,60.904C533.059,60.945 526.514,61.024 518.56,61.078L504.097,61.176C504.059,60.64 504.109,60.19 504.436,59.757C504.623,59.615 506.667,59.288 508.978,59.03C511.325,58.769 513.266,58.426 513.372,58.254C513.477,58.084 513.651,56.899 513.759,55.62C513.978,53.029 513.665,7.091 513.42,5.868C513.226,4.9 512.286,4.596 508.85,4.39C504.256,4.116 504.097,4.075 504.097,3.167L504.097,2.368L513.942,2.378C541.33,2.406 547.447,3.329 551.742,8.084C554.418,11.046 554.695,14.949 552.54,19.349C550.934,22.631 546.696,27.058 543.291,29.013L541.88,29.823L542.862,31.51C544.266,33.922 552.044,45.552 555.252,50.036C558.487,54.556 560.19,56.744 563.212,60.262L565.464,62.884L563.752,63.182C562.811,63.346 561.969,63.48 561.882,63.48C561.796,63.48 560.767,62.769 559.596,61.9ZM530.829,30.581C534.606,29.827 537.135,28.54 539.565,26.137C541.793,23.932 542.758,22.155 543.379,19.113C544.661,12.826 540.553,7.623 532.726,5.621C529.737,4.857 524.288,4.34 523.848,4.78C523.599,5.029 523.494,8.38 523.426,18.305L523.335,31.499L525.735,31.309C527.054,31.205 529.347,30.878 530.829,30.581Z" style="fill:white;fill-rule:nonzero;"/>
    </g>
    <g id="path4038" transform="matrix(1,0,0,1,-211.248,-0.598186)">
        <path d="M387.674,60.787C387.816,59.821 387.564,59.911 392.103,59.201L395.242,58.71L396.257,56.8C398.199,53.144 402.279,43.118 410.581,21.594C413.963,12.825 416.706,5.305 416.571,5.17C416.506,5.106 415.242,4.866 413.762,4.638C409.64,4.002 409.842,4.074 409.843,3.236L409.844,2.49L422.843,2.404C434.828,2.324 435.828,2.353 435.669,2.767C435.574,3.015 435.496,3.369 435.496,3.554C435.496,3.773 434.398,4.063 432.353,4.384C430.624,4.655 429.148,4.977 429.073,5.099C428.998,5.221 430.404,9.473 432.197,14.549C438.733,33.043 444.267,47.239 448.041,55.188L449.614,58.502L450.947,58.815C452.22,59.115 455.878,59.639 456.82,59.657C457.101,59.662 457.31,59.958 457.383,60.452L457.498,61.239L443.154,61.359C435.265,61.425 428.794,61.47 428.774,61.459C428.754,61.448 428.796,61.059 428.867,60.594L428.996,59.749L432.725,59.29C437.437,58.709 437.765,58.625 437.516,58.06C437.206,57.356 434.835,50.652 433.16,45.747C432.314,43.27 431.005,39.617 430.252,37.628L428.881,34.012L427.345,34.012C423.093,34.012 409.154,34.882 408.871,35.165C408.279,35.757 404.454,49.551 403.439,54.754C403.058,56.707 402.747,58.351 402.747,58.407C402.747,58.616 404.054,58.898 407.113,59.35C410.196,59.806 410.253,59.827 410.338,60.558L410.425,61.303L400.377,61.305C394.851,61.306 389.704,61.383 388.939,61.475L387.549,61.642L387.674,60.787ZM427.854,30.871C427.711,30.495 427.406,29.825 427.177,29.382C426.786,28.626 423.301,18.528 420.584,10.281C419.918,8.262 419.333,6.568 419.283,6.518C418.957,6.193 410.115,29.846 410.115,31.041C410.115,31.169 413.216,31.308 417.006,31.351C420.796,31.394 424.846,31.457 426.006,31.492L428.114,31.555L427.854,30.871Z" style="fill:white;fill-rule:nonzero;"/>
    </g>
</svg>
